<svg xmlns="http://www.w3.org/2000/svg" viewBox="0 0 90.88 121.29"><defs><style>.cls-1{fill:#0e5b3f;}</style></defs><g id="Calque_2" data-name="Calque 2"><g id="Calque_1-2" data-name="Calque 1"><path class="cls-1" d="M62.3,112a38.31,38.31,0,0,0,22.47-7.11l.83.66c-8.93,10.58-21,15.7-38.34,15.7-30.9,0-47.26-16.36-47.26-41C0,55.85,22.14,35.36,51.06,35.36c22.47,0,38.67,10.41,39.82,32.06l-2.14,2.15H38.83c-.16,2.48-.16,5-.16,7.1C38.67,96.5,45.61,112,62.3,112ZM14.38,14.21C14.38,6.44,19,0,28.59,0S43,6.44,43,14.21c0,7.93-4.79,14.05-14.37,14.05S14.38,22.14,14.38,14.21ZM57.51,66.26a63.76,63.76,0,0,0,.66-9.42c0-12.72-3.64-20.16-8.6-20.16-5.45,0-8.76,10.25-10.57,31.57Zm-6.12-52C51.39,6.44,56.18,0,65.44,0,75.35,0,80,6.44,80,14.21c0,7.93-4.63,14.05-14.54,14.05C56.18,28.26,51.39,22.14,51.39,14.21Z"/></g></g></svg>