<svg xmlns="http://www.w3.org/2000/svg" viewBox="0 0 374.42 121.29"><defs><style>.cls-1{fill:#02140d;}.cls-2{fill:#0e5b3f;}</style></defs><g id="Calque_2" data-name="Calque 2"><g id="Calque_1-2" data-name="Calque 1"><path class="cls-1" d="M18.51,118H0L10.44,51.89H27l.13,10.44C33.84,54.67,43,49.91,52.74,49.91c13.09,0,22.34,7.13,25.78,18.77,7-11.5,18.11-18.77,30.27-18.77,19,0,30.14,15.2,26.71,37.27L130.6,118H112.1L117,87.18C118.84,75.29,112.36,67,101.26,67s-20,8.33-21.81,20.22L74.56,118H56.05l4.89-30.8C62.79,75.29,56.31,67,45.21,67s-20,8.33-21.81,20.22Z"/><path class="cls-1" d="M211.11,118l-.53-8.72A44.36,44.36,0,0,1,181.36,120c-21.94,0-36.09-14.94-33.05-34.9,3.31-20.23,22.08-35.16,44.16-35.16,11.1,0,20.22,3.83,25.91,10.7l3.17-8.72h16.39L227.5,118Zm-23.27-14.4c14,0,24.59-7.54,26.31-18.51s-6.48-18.9-20.36-18.9-25.12,7.93-27,18.9C165.23,95.78,174,103.58,187.84,103.58Z"/><path class="cls-2" d="M309.22,112a38.34,38.34,0,0,0,22.48-7.11l.82.66c-8.92,10.58-21,15.7-38.33,15.7-30.9,0-47.26-16.36-47.26-41,0-24.46,22.14-44.95,51.06-44.95,22.47,0,38.66,10.41,39.82,32.06l-2.15,2.15h-49.9c-.17,2.48-.17,5-.17,7.1C285.59,96.5,292.54,112,309.22,112ZM261.3,14.21C261.3,6.44,265.93,0,275.51,0s14.38,6.44,14.38,14.21c0,7.93-4.79,14.05-14.38,14.05S261.3,22.14,261.3,14.21Zm43.13,52.05a62.43,62.43,0,0,0,.66-9.42c0-12.72-3.63-20.16-8.59-20.16-5.45,0-8.76,10.25-10.58,31.57Zm-6.11-52c0-7.77,4.79-14.21,14-14.21,9.92,0,14.55,6.44,14.55,14.21,0,7.93-4.63,14.05-14.55,14.05C303.11,28.26,298.32,22.14,298.32,14.21Z"/><path class="cls-1" d="M359.75,118H341.24l14.67-92.53h18.51Z"/></g></g></svg>