<svg width="95" height="31" viewBox="0 0 95 31" fill="none" xmlns="http://www.w3.org/2000/svg">
<path d="M4.69646 30.1591H0L2.6489 13.2623H6.8506L6.88358 15.9307C8.58608 13.9729 10.9102 12.7563 13.3815 12.7563C16.7028 12.7563 19.0497 14.5786 19.9225 17.5536C21.6986 14.6144 24.5175 12.7563 27.6028 12.7563C32.4236 12.7563 35.2501 16.6412 34.3798 22.282L33.1366 30.1591H28.4427L29.6859 22.282C30.1528 19.2431 28.5086 17.1242 25.6923 17.1242C22.8759 17.1242 20.6178 19.2533 20.1585 22.2922L18.9178 30.1591H14.2213L15.462 22.2871C15.9314 19.2431 14.2873 17.1242 11.4709 17.1242C8.65459 17.1242 6.39643 19.2533 5.93718 22.2922L4.69646 30.1591Z" fill="#320E02"/>
<path d="M53.564 30.1591L53.4296 27.9304C51.3679 29.7157 48.7344 30.689 46.0157 30.6703C40.449 30.6703 36.8587 26.8518 37.6301 21.7504C38.4699 16.5799 43.2323 12.764 48.8346 12.764C51.651 12.764 53.9649 13.7428 55.4086 15.4987L56.2129 13.27H60.3715L57.7226 30.1591H53.564ZM47.6598 26.4787C51.212 26.4787 53.899 24.5516 54.3354 21.7478C54.7718 18.944 52.6912 16.9172 49.1695 16.9172C45.6478 16.9172 42.7959 18.944 42.3189 21.7478C41.9231 24.48 44.1483 26.4736 47.6598 26.4736V26.4787Z" fill="#320E02"/>
<path d="M78.4571 28.6256C80.5006 28.6384 82.4963 28.0026 84.1608 26.8084L84.3689 26.9771C82.1056 29.6812 79.0406 30.9898 74.6436 30.9898C66.8035 30.9898 62.6525 26.8084 62.6525 20.5108C62.6525 14.2591 68.27 9.02218 75.6077 9.02218C81.3089 9.02218 85.4168 11.6828 85.7111 17.2163L85.1656 17.7658H72.5047C72.4615 18.3996 72.4615 19.0437 72.4615 19.5804C72.4615 24.664 74.2249 28.6256 78.4571 28.6256ZM66.2985 3.63187C66.2985 1.64597 67.4733 0 69.904 0C72.3347 0 73.5526 1.64597 73.5526 3.63187C73.5526 5.65867 72.3372 7.22285 69.904 7.22285C67.4708 7.22285 66.2985 5.65867 66.2985 3.63187ZM77.2417 16.9351C77.3578 16.138 77.4138 15.3331 77.4092 14.5275C77.4092 11.2764 76.4882 9.37489 75.2297 9.37489C73.8469 9.37489 73.007 11.9946 72.5453 17.4437L77.2417 16.9351ZM75.6915 3.64465C75.6915 1.65875 76.9068 0.0127793 79.2436 0.0127793C81.7606 0.0127793 82.9353 1.65875 82.9353 3.64465C82.9353 5.67145 81.7606 7.23563 79.2436 7.23563C76.9068 7.22285 75.6915 5.65867 75.6915 3.63187V3.64465Z" fill="#EF501E"/>
<path d="M91.2778 30.1591H86.5814L90.3035 6.50977H95L91.2778 30.1591Z" fill="#320E02"/>
</svg>
